<svg id="Capa_1" data-name="Capa 1" xmlns="http://www.w3.org/2000/svg" xmlns:xlink="http://www.w3.org/1999/xlink" viewBox="0 0 5 5"><defs><style>.cls-1{fill:url(#linear-gradient);}.cls-2{fill:#fff;}</style><linearGradient id="linear-gradient" x1="1.9" y1="-0.77" x2="2.77" y2="5.15" gradientUnits="userSpaceOnUse"><stop offset="0" stop-color="#0e3189"/><stop offset="0.94" stop-color="#001042"/></linearGradient></defs><path class="cls-1" d="M4.51,2.73A2.09,2.09,0,0,1,2.6,4.82H2.42a2.31,2.31,0,0,1-.46,0A2.1,2.1,0,1,1,4.51,2.73Z"/><path class="cls-2" d="M2.66,2.29a.26.26,0,0,1,.19-.06,1,1,0,0,1,.28,0l.08-.44a1.49,1.49,0,0,0-.52-.08.94.94,0,0,0-.43.09A.53.53,0,0,0,2,2.08,1.2,1.2,0,0,0,2,2.53V2.7H1.62v.5H2V4.78a2.31,2.31,0,0,0,.46,0H2.6V3.2h.46V2.7H2.6V2.54C2.6,2.41,2.61,2.34,2.66,2.29Z"/></svg>