<svg id="Capa_1" data-name="Capa 1" xmlns="http://www.w3.org/2000/svg" viewBox="0 0 25 24"><defs><style>.cls-1{fill-rule:evenodd;}</style></defs><path class="cls-1" d="M21.14,0H3.7A2.81,2.81,0,0,0,.55,3.18v17.4a2.78,2.78,0,0,0,3,3.11H21.14a2.83,2.83,0,0,0,3.14-3.14V3.11A2.81,2.81,0,0,0,21.14,0ZM19.21,2.68c2.36,0,2.36,0,2.36,2.35s0,2.3-2.31,2.3-2.33,0-2.33-2.33S16.93,2.68,19.21,2.68ZM12.43,7.25a4.59,4.59,0,1,1-4.62,4.54A4.69,4.69,0,0,1,12.43,7.25Zm9.14,12.33c0,1.11-.31,1.42-1.41,1.42H4.66c-1.09,0-1.39-.31-1.39-1.42,0-2.84,0-5.74,0-8.63,0-.81.22-1,1-1,1.08.07,1.1,0,1,1.09A7.3,7.3,0,0,0,10.91,19a7.38,7.38,0,0,0,8.47-5.08,7.31,7.31,0,0,0,.16-3.41c-.08-.41,0-.49.39-.49,1.64-.12,1.64-.15,1.64,1.55Z"/></svg>