<?xml version="1.0" encoding="utf-8"?>
<!-- Generator: Adobe Illustrator 24.2.1, SVG Export Plug-In . SVG Version: 6.00 Build 0)  -->
<svg version="1.1" id="Capa_1" xmlns="http://www.w3.org/2000/svg" xmlns:xlink="http://www.w3.org/1999/xlink" x="0px" y="0px"
	 viewBox="0 0 267 54" style="enable-background:new 0 0 267 54;" xml:space="preserve">
<style type="text/css">
	.st0{fill:none;stroke:#000000;stroke-width:5;stroke-miterlimit:10;}
	.st1{fill:#FFFFFF;}
</style>
<path d="M0.37,50.68V5.18l30.93,32.4V8.05h6.52V53.3L6.89,20.9v29.78H0.37z"/>
<path d="M70.98,44.54c-1.15,2.04-2.81,3.83-4.54,4.92c-2.17,1.41-5.05,2.04-7.92,2.04c-3.58,0-6.52-0.89-9.07-3.45
	c-2.56-2.56-3.96-6.26-3.96-10.29c0-4.15,1.47-8.18,4.28-11.06c2.24-2.24,5.18-3.64,9.01-3.64c4.28,0,7.03,1.85,8.63,3.51
	c3.45,3.58,3.77,8.56,3.77,11.38v0.77h-19.3c0.13,1.92,0.96,4.09,2.3,5.43c1.47,1.47,3.26,1.73,4.79,1.73c1.73,0,3-0.38,4.28-1.34
	c1.09-0.83,1.92-1.92,2.49-2.94L70.98,44.54z M64.78,33.62c-0.26-1.47-0.96-2.75-1.92-3.64c-0.83-0.77-2.17-1.53-4.22-1.53
	c-2.17,0-3.58,0.89-4.41,1.73c-0.89,0.83-1.6,2.11-1.92,3.45H64.78z"/>
<path d="M80.44,23.78l6.97,15.4l7.54-17.7l7.54,17.7l6.97-15.4h7.03l-14,28.82l-7.54-17.19L87.4,52.6l-14-28.82H80.44z"/>
<path d="M145.8,8.05c5.94,0,11.12,0.64,15.85,4.15c5.18,3.9,8.18,10.1,8.18,17.19s-2.94,13.23-8.56,17.19
	c-4.98,3.51-9.65,4.09-15.59,4.09h-8.82V8.05H145.8z M143.38,44.54h2.81c3.2,0,7.6-0.26,11.31-3c2.94-2.24,5.82-6.33,5.82-12.14
	c0-5.62-2.68-10.03-5.75-12.27c-3.71-2.68-8.24-2.94-11.38-2.94h-2.81V44.54z"/>
<path d="M204.21,37.26c0,8.24-6.26,14.25-14.38,14.25c-8.12,0-14.38-6.01-14.38-14.25c0-8.31,6.26-14.19,14.38-14.19
	C197.95,23.07,204.21,28.95,204.21,37.26z M197.82,37.32c0-6.13-4.03-8.63-7.99-8.63s-7.99,2.49-7.99,8.63
	c0,5.18,3.07,8.56,7.99,8.56S197.82,42.5,197.82,37.32z"/>
<path d="M216.99,4.09v46.59h-6.26V4.09H216.99z"/>
<path d="M244.59,4.09h6.26v46.59h-6.26v-2.81c-2.75,3.2-6.13,3.64-8.05,3.64c-8.31,0-13.04-6.9-13.04-14.31
	c0-8.75,6.01-14.12,13.1-14.12c1.98,0,5.43,0.51,7.99,3.83V4.09z M229.89,37.32c0,4.67,2.94,8.56,7.48,8.56
	c3.96,0,7.61-2.88,7.61-8.5c0-5.88-3.64-8.69-7.61-8.69C232.83,28.7,229.89,32.53,229.89,37.32z"/>
<path d="M261.91,8.63c2.3,0,4.03,1.73,4.03,4.03c0,2.3-1.73,4.03-4.03,4.03c-2.3,0-4.03-1.73-4.03-4.03
	C257.88,10.36,259.61,8.63,261.91,8.63z M265.04,23.78v26.9h-6.26v-26.9H265.04z"/>
</svg>
