<svg id="Capa_1" data-name="Capa 1" xmlns="http://www.w3.org/2000/svg" viewBox="0 0 5 5"><defs><style>.cls-1{fill:#494d56;}.cls-2{fill:#fff;fill-rule:evenodd;}</style></defs><path class="cls-1" d="M4.48,2.67A2.1,2.1,0,1,1,2.38.58,2.1,2.1,0,0,1,4.48,2.67Z"/><path class="cls-2" d="M3.62,2.37a1.26,1.26,0,0,0-1.24-1l-.24,0a1.27,1.27,0,0,0-.87,1.86.13.13,0,0,1,0,.06c-.06.2-.12.4-.17.59s0,0,0,0l.62-.16H1.8a1.25,1.25,0,0,0,.83.12A1.27,1.27,0,0,0,3.62,2.37ZM2.56,3.71H2.41a1.08,1.08,0,0,1-.57-.15.08.08,0,0,0-.07,0l-.34.09s0,0,0,0l.09-.32a.08.08,0,0,0,0-.08A1.06,1.06,0,0,1,1.53,2a1,1,0,0,1,1.08-.41,1,1,0,0,1,.8.8A1,1,0,0,1,2.56,3.71Z"/><path class="cls-2" d="M2.72,3.27a.34.34,0,0,1-.14,0,1.28,1.28,0,0,1-.69-.5.69.69,0,0,1-.14-.3.36.36,0,0,1,.11-.35.2.2,0,0,1,.17,0l0,0a2,2,0,0,0,.11.26.07.07,0,0,1,0,.06.36.36,0,0,1-.07.1,0,0,0,0,0,0,.07A.84.84,0,0,0,2.51,3a.06.06,0,0,0,.07,0l.09-.12a.06.06,0,0,1,.08,0l.18.08,0,0C3,3,3,3,3,3s-.11.2-.23.24Z"/></svg>