<svg id="Capa_1" data-name="Capa 1" xmlns="http://www.w3.org/2000/svg" viewBox="0 0 151 152"><defs><style>.cls-1{fill:#fff;}</style></defs><path class="cls-1" d="M77.27,12.56A61.5,61.5,0,1,1,43.81,125.63l-14.93,4.46-9.28,2.77,3-8.84,3.16-9.19,1.64-4.78A61.49,61.49,0,0,1,77.27,12.56ZM95,111.16c24-1.14,20.17-17.89,20.17-17.89L96.5,83.75c-8,10.28-9.9,9.9-9.9,9.9C77.84,91,68.71,82.23,68.71,82.23h0c-2.26-2.29-9-9.48-11.48-16.6,0,0-.47-1.88,9.43-10.34L56.28,37.1s-16.9-3-16.94,21c0,0,6.4,22,20.88,34.46C73.43,106,95,111.16,95,111.16Z"/><path d="M115.15,93.27S119,110,95,111.16c0,0-21.55-5.21-34.76-18.62C45.74,80.05,39.34,58.08,39.34,58.08c0-24,16.94-21,16.94-21L66.65,55.3c-9.9,8.46-9.43,10.34-9.43,10.34C59.75,72.76,66.44,80,68.7,82.24h0S77.84,91,86.6,93.65c0,0,1.9.38,9.9-9.9Z"/><path d="M43.81,125.63a61.48,61.48,0,1,0-16.38-15.58l-1.64,4.78L22.63,124l-3,8.84,9.28-2.77ZM77.27,0A74,74,0,1,1,41.56,138.93L-.2,152.28l13.82-40.39A74.06,74.06,0,0,1,77.27,0Z"/></svg>